<?xml version="1.0" encoding="utf-8"?>
<!-- Generator: Adobe Illustrator 22.1.0, SVG Export Plug-In . SVG Version: 6.00 Build 0)  -->
<svg version="1.1" id="Layer_1" xmlns="http://www.w3.org/2000/svg" xmlns:xlink="http://www.w3.org/1999/xlink" x="0px" y="0px"
	 viewBox="0 0 555.6 184.4" style="enable-background:new 0 0 555.6 184.4;" xml:space="preserve">
<style type="text/css">
	.st0{fill:#FFFFFF;}
	.st1{fill:#5F7A99;}
	.st2{fill:#97A7BC;}
	.st3{fill:#00416B;}
	.st4{fill:url(#SVGID_1_);}
	.st5{fill:url(#SVGID_2_);}
	.st6{fill:url(#SVGID_3_);}
	.st7{fill:#FFD100;}
	.st8{fill:#FFB600;}
	.st9{fill:#385E82;}
	.st10{fill:#597595;}
	.st11{fill:url(#SVGID_4_);}
	.st12{fill:url(#SVGID_5_);}
	.st13{fill:url(#SVGID_6_);}
	.st14{fill:url(#SVGID_7_);}
	.st15{fill:url(#SVGID_8_);}
	.st16{fill:url(#SVGID_9_);}
	.st17{fill:url(#SVGID_10_);}
	.st18{fill:#517091;}
	.st19{fill:#456789;}
	.st20{fill:#798FA9;}
	.st21{fill:#78C366;}
	.st22{fill:#3B6084;}
	.st23{fill:#0E426A;}
	.st24{fill:#00833E;}
	.st25{fill:#6D85A2;}
	.st26{fill:#6ABF4B;}
	.st27{fill:#198844;}
	.st28{fill:none;}
</style>
<path class="st0" d="M320.6,70.3"/>
<path class="st0" d="M312.2,74.7"/>
<g>
	<polygon class="st1" points="65.7,91.1 72.9,109.8 81.4,129 81.4,106.8 	"/>
	<polygon class="st2" points="81.4,53.3 72.8,72.5 65.7,91.1 81.4,75.5 	"/>
	<polygon class="st2" points="119.2,37.6 100,45 81.4,53.3 103.6,53.3 	"/>
	<polygon class="st3" points="81.4,129 119.2,144.6 103.6,129 	"/>
	<radialGradient id="SVGID_1_" cx="118.9874" cy="128.4072" r="3.406995e-05" gradientUnits="userSpaceOnUse">
		<stop  offset="0" style="stop-color:#FFFFFF"/>
		<stop  offset="9.040742e-02" style="stop-color:#F9F9F9"/>
		<stop  offset="0.2168" style="stop-color:#E6E6E6"/>
		<stop  offset="0.3643" style="stop-color:#C9C9C9"/>
		<stop  offset="0.528" style="stop-color:#9F9F9F"/>
		<stop  offset="0.7048" style="stop-color:#6A6A6A"/>
		<stop  offset="0.8898" style="stop-color:#2A2A2A"/>
		<stop  offset="1" style="stop-color:#000000"/>
	</radialGradient>
	<polygon class="st4" points="119,128.4 119,128.4 119,128.4 	"/>
	<radialGradient id="SVGID_2_" cx="119.0935" cy="53.6995" r="0" gradientUnits="userSpaceOnUse">
		<stop  offset="0" style="stop-color:#FFFFFF"/>
		<stop  offset="9.040742e-02" style="stop-color:#F9F9F9"/>
		<stop  offset="0.2168" style="stop-color:#E6E6E6"/>
		<stop  offset="0.3643" style="stop-color:#C9C9C9"/>
		<stop  offset="0.528" style="stop-color:#9F9F9F"/>
		<stop  offset="0.7048" style="stop-color:#6A6A6A"/>
		<stop  offset="0.8898" style="stop-color:#2A2A2A"/>
		<stop  offset="1" style="stop-color:#000000"/>
	</radialGradient>
	<polygon class="st5" points="119.1,53.7 119.1,53.7 119.1,53.7 	"/>
	<radialGradient id="SVGID_3_" cx="81.6839" cy="91.1251" r="2.366214e-04" gradientUnits="userSpaceOnUse">
		<stop  offset="0" style="stop-color:#FFFFFF"/>
		<stop  offset="9.040742e-02" style="stop-color:#F9F9F9"/>
		<stop  offset="0.2168" style="stop-color:#E6E6E6"/>
		<stop  offset="0.3643" style="stop-color:#C9C9C9"/>
		<stop  offset="0.528" style="stop-color:#9F9F9F"/>
		<stop  offset="0.7048" style="stop-color:#6A6A6A"/>
		<stop  offset="0.8898" style="stop-color:#2A2A2A"/>
		<stop  offset="1" style="stop-color:#000000"/>
	</radialGradient>
	<polygon class="st6" points="81.7,91.1 81.7,91.1 81.7,91.1 	"/>
	<polygon class="st7" points="172.7,91.1 157.1,75.5 156.5,91.1 	"/>
	<polygon class="st8" points="156.5,91.1 157.1,106.8 172.7,91.1 	"/>
	<polygon class="st2" points="65.7,91.1 81.4,106.8 81.7,91.1 81.7,91.1 81.7,91.1 	"/>
	<polygon class="st9" points="81.7,91.1 81.4,75.5 65.7,91.1 	"/>
	<polygon class="st3" points="119.2,144.6 134.9,129 119,128.4 119,128.4 119,128.4 	"/>
	<polygon class="st9" points="119,128.4 103.6,129 119.2,144.6 	"/>
	<polygon class="st9" points="119.2,37.6 103.6,53.3 119.1,53.7 	"/>
	<polygon class="st10" points="119.1,53.7 119.1,53.7 119.1,53.7 134.9,53.3 119.2,37.6 	"/>
	
		<radialGradient id="SVGID_4_" cx="5.113" cy="-244.0576" r="8.138286e-05" gradientTransform="matrix(0.7071 -0.7071 0.7071 0.7071 261.6815 293.4869)" gradientUnits="userSpaceOnUse">
		<stop  offset="0" style="stop-color:#FFFFFF"/>
		<stop  offset="9.040742e-02" style="stop-color:#F9F9F9"/>
		<stop  offset="0.2168" style="stop-color:#E6E6E6"/>
		<stop  offset="0.3643" style="stop-color:#C9C9C9"/>
		<stop  offset="0.528" style="stop-color:#9F9F9F"/>
		<stop  offset="0.7048" style="stop-color:#6A6A6A"/>
		<stop  offset="0.8898" style="stop-color:#2A2A2A"/>
		<stop  offset="1" style="stop-color:#000000"/>
	</radialGradient>
	<polygon class="st11" points="92.7,117.3 92.7,117.3 92.7,117.3 	"/>
	
		<radialGradient id="SVGID_5_" cx="42.3645" cy="-205.9881" r="1.984023e-04" gradientTransform="matrix(0.7071 -0.7071 0.7071 0.7071 261.6815 293.4869)" gradientUnits="userSpaceOnUse">
		<stop  offset="0" style="stop-color:#FFFFFF"/>
		<stop  offset="9.040742e-02" style="stop-color:#F9F9F9"/>
		<stop  offset="0.2168" style="stop-color:#E6E6E6"/>
		<stop  offset="0.3643" style="stop-color:#C9C9C9"/>
		<stop  offset="0.528" style="stop-color:#9F9F9F"/>
		<stop  offset="0.7048" style="stop-color:#6A6A6A"/>
		<stop  offset="0.8898" style="stop-color:#2A2A2A"/>
		<stop  offset="1" style="stop-color:#000000"/>
	</radialGradient>
	<polygon class="st12" points="146,117.9 146,117.9 146,117.9 	"/>
	
		<radialGradient id="SVGID_6_" cx="42.3645" cy="-297.3186" r="3.246914e-04" gradientTransform="matrix(0.7071 -0.7071 0.7071 0.7071 261.6815 293.4869)" gradientUnits="userSpaceOnUse">
		<stop  offset="0" style="stop-color:#FFFFFF"/>
		<stop  offset="9.040742e-02" style="stop-color:#F9F9F9"/>
		<stop  offset="0.2168" style="stop-color:#E6E6E6"/>
		<stop  offset="0.3643" style="stop-color:#C9C9C9"/>
		<stop  offset="0.528" style="stop-color:#9F9F9F"/>
		<stop  offset="0.7048" style="stop-color:#6A6A6A"/>
		<stop  offset="0.8898" style="stop-color:#2A2A2A"/>
		<stop  offset="1" style="stop-color:#000000"/>
	</radialGradient>
	<rect x="81.4" y="53.3" class="st13" width="0" height="0"/>
	
		<radialGradient id="SVGID_7_" cx="42.3645" cy="-190.3185" r="4.213410e-05" gradientTransform="matrix(0.7071 -0.7071 0.7071 0.7071 261.6815 293.4869)" gradientUnits="userSpaceOnUse">
		<stop  offset="0" style="stop-color:#FFFFFF"/>
		<stop  offset="9.040742e-02" style="stop-color:#F9F9F9"/>
		<stop  offset="0.2168" style="stop-color:#E6E6E6"/>
		<stop  offset="0.3643" style="stop-color:#C9C9C9"/>
		<stop  offset="0.528" style="stop-color:#9F9F9F"/>
		<stop  offset="0.7048" style="stop-color:#6A6A6A"/>
		<stop  offset="0.8898" style="stop-color:#2A2A2A"/>
		<stop  offset="1" style="stop-color:#000000"/>
	</radialGradient>
	<polygon class="st14" points="157.1,129 157.1,129 157.1,129 	"/>
	
		<radialGradient id="SVGID_8_" cx="95.8644" cy="-243.8184" r="4.213410e-05" gradientTransform="matrix(0.7071 -0.7071 0.7071 0.7071 261.6815 293.4869)" gradientUnits="userSpaceOnUse">
		<stop  offset="0" style="stop-color:#FFFFFF"/>
		<stop  offset="9.040742e-02" style="stop-color:#F9F9F9"/>
		<stop  offset="0.2168" style="stop-color:#E6E6E6"/>
		<stop  offset="0.3643" style="stop-color:#C9C9C9"/>
		<stop  offset="0.528" style="stop-color:#9F9F9F"/>
		<stop  offset="0.7048" style="stop-color:#6A6A6A"/>
		<stop  offset="0.8898" style="stop-color:#2A2A2A"/>
		<stop  offset="1" style="stop-color:#000000"/>
	</radialGradient>
	<polygon class="st15" points="157.1,53.3 157.1,53.3 157.1,53.3 	"/>
	
		<radialGradient id="SVGID_9_" cx="42.3895" cy="-281.3336" r="4.550378e-04" gradientTransform="matrix(0.7071 -0.7071 0.7071 0.7071 261.6815 293.4869)" gradientUnits="userSpaceOnUse">
		<stop  offset="0" style="stop-color:#FFFFFF"/>
		<stop  offset="9.040742e-02" style="stop-color:#F9F9F9"/>
		<stop  offset="0.2168" style="stop-color:#E6E6E6"/>
		<stop  offset="0.3643" style="stop-color:#C9C9C9"/>
		<stop  offset="0.528" style="stop-color:#9F9F9F"/>
		<stop  offset="0.7048" style="stop-color:#6A6A6A"/>
		<stop  offset="0.8898" style="stop-color:#2A2A2A"/>
		<stop  offset="1" style="stop-color:#000000"/>
	</radialGradient>
	<polygon class="st16" points="92.7,64.6 92.7,64.6 92.7,64.6 	"/>
	
		<radialGradient id="SVGID_10_" cx="-11.1354" cy="-243.8183" r="3.036647e-04" gradientTransform="matrix(0.7071 -0.7071 0.7071 0.7071 261.6815 293.4869)" gradientUnits="userSpaceOnUse">
		<stop  offset="0" style="stop-color:#FFFFFF"/>
		<stop  offset="9.040742e-02" style="stop-color:#F9F9F9"/>
		<stop  offset="0.2168" style="stop-color:#E6E6E6"/>
		<stop  offset="0.3643" style="stop-color:#C9C9C9"/>
		<stop  offset="0.528" style="stop-color:#9F9F9F"/>
		<stop  offset="0.7048" style="stop-color:#6A6A6A"/>
		<stop  offset="0.8898" style="stop-color:#2A2A2A"/>
		<stop  offset="1" style="stop-color:#000000"/>
	</radialGradient>
	<rect x="81.4" y="129" class="st17" width="0" height="0"/>
	<polygon class="st9" points="81.4,53.3 81.4,53.3 81.4,53.3 81.4,75.5 92.7,64.6 92.7,64.6 92.7,64.6 	"/>
	<polygon class="st18" points="81.4,129 103.6,129 92.7,117.3 	"/>
	<polygon class="st3" points="92.7,117.3 92.7,117.3 92.7,117.3 81.4,106.8 81.4,129 81.4,129 81.4,129 	"/>
	<polygon class="st10" points="81.4,75.5 81.7,91.1 92.7,64.6 	"/>
	<polygon class="st19" points="103.6,53.3 92.7,64.6 119.1,53.7 	"/>
	<polygon class="st3" points="103.6,129 119,128.4 92.7,117.3 	"/>
	<polygon class="st10" points="81.4,106.8 92.7,117.3 86.6,103.9 81.7,91.1 	"/>
	<polygon class="st20" points="92.7,64.6 103.6,53.3 81.4,53.3 	"/>
	<polygon class="st21" points="146.4,66.7 156.5,91.1 157.1,75.5 147,66.2 	"/>
	<polygon class="st22" points="153.8,129.2 134.9,129 119.2,144.6 154.5,129.9 	"/>
	<polygon class="st23" points="158,55.7 157.1,56.5 157.1,75.5 172.7,91.1 	"/>
	<polygon class="st3" points="144,118.8 134.9,129 153.8,129.2 	"/>
	<polygon class="st24" points="147,66.2 157.1,75.5 157.1,56.5 	"/>
	<polygon class="st25" points="143.5,118.3 132.1,122.8 119,128.4 134.9,129 144,118.8 	"/>
	<polygon class="st1" points="143.9,63.4 134.9,53.3 119.1,53.7 143.5,63.8 	"/>
	<polygon class="st26" points="147.2,115.3 157.1,106.8 156.5,91.1 146.7,114.8 	"/>
	<polygon class="st1" points="154.6,53.2 134.9,53.3 143.9,63.4 	"/>
	<polygon class="st23" points="158,126.6 172.7,91.1 157.1,106.8 157.2,125.9 	"/>
	<polygon class="st20" points="155.2,52.5 138.8,45.6 119.2,37.6 134.9,53.3 154.6,53.2 	"/>
	<polygon class="st24" points="157.2,125.9 157.1,106.8 147.2,115.3 	"/>
</g>
<g>
	<path class="st23" d="M189.4,74.2c2.7-2.8,6.2-4.2,10.5-4.2c5.7,0,9.8,1.9,12.4,5.6c1.4,2.1,2.2,4.2,2.3,6.4h-7.1
		c-0.5-1.6-1-2.9-1.7-3.7c-1.3-1.5-3.1-2.2-5.6-2.2c-2.5,0-4.5,1-6,3.1c-1.5,2.1-2.2,5-2.2,8.9c0,3.8,0.8,6.7,2.3,8.6
		c1.5,1.9,3.5,2.9,5.9,2.9c2.4,0,4.3-0.8,5.6-2.5c0.7-0.9,1.3-2.2,1.8-4h7.1c-0.6,3.7-2.2,6.7-4.7,9.1c-2.5,2.3-5.7,3.5-9.6,3.5
		c-4.9,0-8.7-1.6-11.4-4.7c-2.8-3.2-4.2-7.5-4.2-13C184.6,82,186.2,77.4,189.4,74.2z"/>
	<path class="st23" d="M228.1,89.3c1.2-0.2,2.1-0.3,2.7-0.6c1-0.4,1.4-1,1.4-1.9c0-1-0.4-1.8-1.1-2.2c-0.7-0.4-1.8-0.6-3.2-0.6
		c-1.6,0-2.7,0.4-3.4,1.2c-0.5,0.6-0.8,1.4-0.9,2.3h-6.4c0.1-2.2,0.8-4,1.9-5.5c1.8-2.2,4.8-3.4,9.1-3.4c2.8,0,5.3,0.6,7.4,1.7
		c2.2,1.1,3.3,3.2,3.3,6.2v11.6c0,0.8,0,1.8,0,2.9c0,0.9,0.2,1.5,0.4,1.8c0.2,0.3,0.5,0.6,1,0.8v1H233c-0.2-0.5-0.3-1-0.4-1.4
		c-0.1-0.5-0.1-1-0.2-1.5c-0.9,1-2,1.8-3.2,2.5c-1.4,0.8-3.1,1.2-4.9,1.2c-2.3,0-4.2-0.7-5.7-2c-1.5-1.3-2.3-3.2-2.3-5.6
		c0-3.1,1.2-5.4,3.6-6.8c1.3-0.8,3.3-1.3,5.9-1.6L228.1,89.3z M232.1,92.4c-0.4,0.3-0.9,0.5-1.3,0.6c-0.4,0.2-1,0.3-1.8,0.5
		l-1.5,0.3c-1.4,0.2-2.4,0.6-3.1,0.9c-1,0.6-1.6,1.5-1.6,2.8c0,1.1,0.3,2,1,2.5c0.6,0.5,1.4,0.8,2.3,0.8c1.5,0,2.8-0.4,4-1.3
		c1.2-0.8,1.9-2.4,1.9-4.6V92.4z"/>
	<path class="st23" d="M278.6,90c-2,1.7-4.8,2.5-8.5,2.5h-7.1v12.3h-7.1V70.7h14.6c3.4,0,6.1,0.9,8.1,2.6c2,1.8,3,4.5,3,8.2
		C281.6,85.5,280.6,88.3,278.6,90z M273.1,77.7c-0.9-0.8-2.2-1.1-3.8-1.1h-6.4v10h6.4c1.6,0,2.9-0.4,3.8-1.2
		c0.9-0.8,1.4-2.1,1.4-3.9C274.5,79.7,274,78.5,273.1,77.7z"/>
	<path class="st23" d="M305.3,101.7c-2.1,2.6-5.4,3.9-9.7,3.9s-7.6-1.3-9.7-3.9c-2.1-2.6-3.2-5.8-3.2-9.5c0-3.6,1.1-6.8,3.2-9.5
		c2.1-2.7,5.4-4,9.7-4s7.6,1.3,9.7,4c2.1,2.7,3.2,5.8,3.2,9.5C308.5,95.9,307.5,99,305.3,101.7z M300.1,98c1-1.4,1.5-3.3,1.5-5.8
		c0-2.5-0.5-4.5-1.5-5.8c-1-1.4-2.5-2-4.4-2c-1.9,0-3.4,0.7-4.5,2c-1,1.4-1.6,3.3-1.6,5.8c0,2.5,0.5,4.5,1.6,5.8s2.5,2.1,4.5,2.1
		C297.6,100.1,299,99.4,300.1,98z"/>
	<path class="st23" d="M326.6,109.6l0.8,0c0.6,0,1.3,0,1.8-0.1c0.6-0.1,1.1-0.3,1.5-0.5c0.4-0.3,0.7-0.8,1.1-1.6
		c0.3-0.8,0.5-1.3,0.4-1.5L323,79.5h7.3l5.5,18.6l5.2-18.6h7l-8.6,24.8c-1.7,4.8-3,7.7-4,8.9s-2.9,1.7-5.8,1.7c-0.6,0-1.1,0-1.4,0
		c-0.4,0-0.9,0-1.6-0.1V109.6z"/>
	<g>
		<polygon class="st23" points="244,74 244,104.7 250.6,104.7 250.6,70.7 250.4,70.7 		"/>
	</g>
	<g>
		<polygon class="st23" points="313.1,74 313.1,104.7 319.7,104.7 319.7,70.7 319.5,70.7 		"/>
	</g>
	<path class="st27" d="M351.5,70.1h15.4c3,0,5.5,0.9,7.4,2.6c1.9,1.7,2.8,4.2,2.8,7.3c0,2.7-0.8,5-2.5,7s-4.2,3-7.7,3h-10.8v14.6
		h-4.7V70.1z M369.6,74.9c-1-0.5-2.4-0.7-4.2-0.7h-9.2v11.9h9.2c2.1,0,3.8-0.4,5.1-1.3c1.3-0.9,1.9-2.5,1.9-4.7
		C372.4,77.5,371.4,75.8,369.6,74.9z"/>
	<path class="st27" d="M397.1,82c2.2,2.2,3.3,5.3,3.3,9.5c0,4-1,7.4-2.9,10c-2,2.6-5,4-9.1,4c-3.4,0-6.2-1.2-8.2-3.5
		c-2-2.3-3-5.5-3-9.4c0-4.2,1.1-7.6,3.2-10.1c2.1-2.5,5-3.7,8.6-3.7C392.2,78.7,394.9,79.8,397.1,82z M394.5,98.7
		c1-2.1,1.5-4.5,1.5-7.1c0-2.3-0.4-4.2-1.1-5.7c-1.2-2.3-3.2-3.5-6.1-3.5c-2.5,0-4.4,1-5.6,2.9c-1.2,2-1.7,4.3-1.7,7.1
		c0,2.7,0.6,4.9,1.7,6.7c1.2,1.8,3,2.7,5.5,2.7C391.5,101.8,393.4,100.8,394.5,98.7z"/>
	<path class="st27" d="M403.8,79.5h4.2V83c1-1.2,1.9-2.1,2.7-2.7c1.4-1,3-1.4,4.7-1.4c2,0,3.6,0.5,4.8,1.5c0.7,0.6,1.3,1.4,1.9,2.5
		c0.9-1.3,2-2.3,3.3-3s2.7-1,4.3-1c3.4,0,5.7,1.2,6.9,3.7c0.7,1.3,1,3.1,1,5.3v16.7h-4.4V87.1c0-1.7-0.4-2.8-1.3-3.4
		s-1.9-0.9-3.1-0.9c-1.7,0-3.1,0.6-4.3,1.7s-1.8,3-1.8,5.6v14.6h-4.3V88.2c0-1.7-0.2-2.9-0.6-3.7c-0.6-1.2-1.8-1.8-3.6-1.8
		c-1.6,0-3,0.6-4.3,1.9s-2,3.5-2,6.7v13.3h-4.2V79.5z"/>
	<path class="st27" d="M460.2,82c2.2,2.2,3.3,5.3,3.3,9.5c0,4-1,7.4-2.9,10c-2,2.6-5,4-9.1,4c-3.4,0-6.2-1.2-8.2-3.5
		c-2-2.3-3-5.5-3-9.4c0-4.2,1.1-7.6,3.2-10.1c2.1-2.5,5-3.7,8.6-3.7C455.3,78.7,458,79.8,460.2,82z M457.6,98.7
		c1-2.1,1.5-4.5,1.5-7.1c0-2.3-0.4-4.2-1.1-5.7c-1.2-2.3-3.2-3.5-6.1-3.5c-2.5,0-4.4,1-5.6,2.9c-1.2,2-1.7,4.3-1.7,7.1
		c0,2.7,0.6,4.9,1.7,6.7c1.2,1.8,3,2.7,5.5,2.7C454.7,101.8,456.6,100.8,457.6,98.7z"/>
	<path class="st27" d="M467,79.5h4V83c1.2-1.5,2.4-2.5,3.8-3.2s2.8-1,4.4-1c3.6,0,6,1.2,7.2,3.7c0.7,1.4,1,3.3,1,5.8v16.1h-4.3V88.8
		c0-1.5-0.2-2.8-0.7-3.7c-0.8-1.6-2.1-2.3-4.1-2.3c-1,0-1.8,0.1-2.5,0.3c-1.2,0.3-2.2,1-3,2.1c-0.7,0.8-1.2,1.7-1.4,2.6
		s-0.3,2.1-0.3,3.8v13.1H467V79.5z"/>
	<path class="st27" d="M505.3,89.4c1-0.1,1.6-0.5,1.9-1.2c0.2-0.4,0.3-0.9,0.3-1.6c0-1.4-0.5-2.5-1.5-3.1s-2.5-1-4.4-1
		c-2.2,0-3.8,0.6-4.7,1.8c-0.5,0.7-0.8,1.6-1,2.9H492c0.1-3.1,1.1-5.3,3-6.5c1.9-1.2,4.2-1.8,6.7-1.8c2.9,0,5.3,0.6,7.2,1.7
		c1.8,1.1,2.7,2.9,2.7,5.3v14.5c0,0.4,0.1,0.8,0.3,1.1c0.2,0.3,0.6,0.4,1.1,0.4c0.2,0,0.4,0,0.6,0s0.5-0.1,0.8-0.1v3.1
		c-0.7,0.2-1.2,0.3-1.5,0.4s-0.8,0.1-1.4,0.1c-1.5,0-2.5-0.5-3.2-1.5c-0.3-0.5-0.6-1.3-0.7-2.3c-0.9,1.1-2.1,2.1-3.7,2.9
		c-1.6,0.8-3.4,1.2-5.3,1.2c-2.3,0-4.2-0.7-5.7-2.1s-2.2-3.2-2.2-5.3c0-2.3,0.7-4.1,2.2-5.4s3.4-2.1,5.7-2.4L505.3,89.4z
		 M496.4,100.8c0.9,0.7,1.9,1.1,3.2,1.1c1.5,0,2.9-0.3,4.3-1c2.3-1.1,3.5-3,3.5-5.6v-3.4c-0.5,0.3-1.2,0.6-2,0.8
		c-0.8,0.2-1.6,0.4-2.4,0.5l-2.5,0.3c-1.5,0.2-2.7,0.5-3.4,1c-1.3,0.7-2,1.9-2,3.5C495.1,99.1,495.5,100.1,496.4,100.8z"/>
</g>
<polygon class="st28" points="361,76 397.1,76 397.1,76 361,76 "/>
</svg>
