<?xml version="1.0" standalone="no"?>
<!DOCTYPE svg PUBLIC "-//W3C//DTD SVG 20010904//EN"
 "http://www.w3.org/TR/2001/REC-SVG-20010904/DTD/svg10.dtd">
<svg version="1.0" xmlns="http://www.w3.org/2000/svg"
 width="300.000000pt" height="300.000000pt" viewBox="0 0 300.000000 300.000000"
 preserveAspectRatio="xMidYMid meet">
<metadata>
Created by potrace 1.11, written by Peter Selinger 2001-2013
</metadata>
<g transform="translate(0.000000,300.000000) scale(0.100000,-0.100000)"
fill="#000000" stroke="none">
<path d="M1361 2457 c-74 -144 -165 -320 -203 -392 -37 -71 -68 -132 -68 -136
0 -4 23 1 50 12 32 12 76 19 120 19 l70 0 0 -295 0 -295 170 0 170 0 0 295 0
295 68 0 c38 0 90 -7 116 -16 49 -17 66 -14 49 8 -6 7 -78 146 -161 308 -203
398 -236 460 -242 460 -3 0 -65 -118 -139 -263z"/>
<path d="M40 2272 c0 -2 46 -65 103 -140 289 -385 477 -819 556 -1288 26 -150
51 -392 51 -484 0 -38 4 -70 9 -70 5 0 51 11 103 25 197 52 267 58 638 58 370
0 433 -6 641 -58 54 -14 100 -25 103 -25 3 0 6 26 6 58 0 191 55 564 116 787
104 376 296 757 527 1043 37 45 67 86 67 90 0 11 -176 -4 -260 -23 -93 -21
-204 -66 -294 -119 -66 -40 -266 -218 -266 -238 0 -5 12 -7 29 -3 40 8 101 9
138 1 l31 -7 -58 -124 c-163 -344 -245 -631 -281 -985 l-13 -126 -60 13 c-34
7 -105 13 -158 13 l-98 0 0 235 0 235 -170 0 -170 0 0 -234 0 -233 -127 -6
c-71 -3 -142 -10 -158 -15 l-31 -9 -12 128 c-33 343 -116 638 -272 966 l-68
142 31 7 c36 8 122 7 149 -2 35 -11 17 14 -74 102 -151 146 -297 224 -493 262
-91 19 -235 33 -235 24z"/>
</g>
</svg>
