<svg data-v-423bf9ae="" xmlns="http://www.w3.org/2000/svg" viewBox="0 0 900 107" class="iconLeftSlogan"><!----><!----><!----><g data-v-423bf9ae="" id="09b04d62-d8e6-44d8-89c9-251e926a4f34" fill="white" transform="matrix(4.701931411333651,0,0,4.701931411333651,108.98015715820878,-32.60453499240789)"><path d="M-1.16 16.53L-1.16 16.53Q-1.43 16.69-1.43 16.95L-1.43 16.95Q-1.40 17.21-0.80 17.72L-0.80 17.72Q0.34 18.77 1.40 19.20Q2.46 19.63 3.58 19.60L3.58 19.60Q4.42 19.59 5.03 19.39Q5.63 19.19 6.05 18.91Q6.47 18.62 6.72 18.28Q6.97 17.95 7.11 17.65L7.11 17.65Q7.34 17.25 7.26 16.89Q7.18 16.53 6.90 16.20Q6.61 15.88 6.17 15.57Q5.73 15.26 5.23 14.95Q4.73 14.63 4.24 14.29Q3.74 13.96 3.33 13.58L3.33 13.58Q3.01 13.30 2.93 12.94Q2.84 12.57 2.91 12.19Q2.98 11.82 3.19 11.44Q3.39 11.06 3.65 10.74Q3.91 10.42 4.19 10.16Q4.47 9.91 4.69 9.79L4.69 9.79Q4.96 9.60 5.07 9.63Q5.18 9.66 5.20 9.84Q5.22 10.02 5.17 10.31Q5.11 10.60 5.03 10.91Q4.96 11.23 4.88 11.54Q4.80 11.86 4.79 12.10L4.79 12.10Q4.65 13.26 6.55 13.93L6.55 13.93Q6.87 14.06 7.06 13.99Q7.24 13.92 7.39 13.64L7.39 13.64Q7.55 13.33 7.70 12.91Q7.85 12.49 7.98 12.03Q8.11 11.58 8.20 11.13Q8.30 10.68 8.34 10.30L8.34 10.30Q8.34 10.09 8.34 9.86Q8.33 9.63 8.27 9.38Q8.20 9.13 8.06 8.87Q7.91 8.61 7.63 8.36L7.63 8.36Q7.21 7.95 6.58 7.63Q5.95 7.31 5.32 7.08L5.32 7.08Q4.90 6.96 4.51 6.94Q4.13 6.92 3.80 6.97Q3.47 7.03 3.21 7.15Q2.94 7.27 2.76 7.39L2.76 7.39Q2.25 7.70 1.76 8.15Q1.27 8.60 0.87 9.11Q0.46 9.63 0.16 10.18Q-0.14 10.72-0.27 11.20L-0.27 11.20Q-0.45 11.76-0.43 12.28Q-0.42 12.80-0.25 13.25Q-0.08 13.71 0.22 14.09Q0.52 14.48 0.90 14.78L0.90 14.78Q1.25 15.08 1.67 15.36Q2.10 15.64 2.53 15.90Q2.95 16.17 3.34 16.41Q3.72 16.66 3.98 16.86Q4.24 17.07 4.33 17.23Q4.42 17.40 4.27 17.50L4.27 17.50Q3.88 17.81 3.00 17.60Q2.13 17.39 0.95 16.67L0.95 16.67Q0.74 16.53 0.48 16.46Q0.22 16.38-0.06 16.36Q-0.35 16.34-0.63 16.39Q-0.91 16.44-1.16 16.53ZM11.03 12.47L11.03 12.47Q11.24 13.87 11.50 15.19Q11.76 16.51 12.04 17.51L12.04 17.51Q12.11 17.75 12.17 17.91Q12.24 18.06 12.32 18.16Q12.40 18.27 12.52 18.33Q12.63 18.40 12.78 18.45L12.78 18.45Q13.20 18.59 13.76 18.70L13.76 18.70Q13.94 18.75 14.06 18.74Q14.17 18.73 14.24 18.69Q14.31 18.65 14.36 18.56Q14.41 18.47 14.48 18.31L14.48 18.31Q14.70 17.82 15.07 17.09Q15.44 16.35 15.88 15.53Q16.32 14.70 16.79 13.85Q17.26 12.99 17.68 12.26L17.68 12.26Q17.44 13.09 17.24 13.97Q17.04 14.85 16.87 15.66Q16.70 16.46 16.58 17.13Q16.45 17.79 16.39 18.21L16.39 18.21Q16.32 18.56 16.43 18.77Q16.53 18.98 16.86 19.14L16.86 19.14Q17.11 19.28 17.44 19.38Q17.78 19.47 18.10 19.54L18.10 19.54Q18.47 19.63 18.59 19.52Q18.72 19.40 18.82 19.15L18.82 19.15Q18.93 18.66 19.12 17.92Q19.32 17.18 19.56 16.30Q19.81 15.41 20.08 14.45Q20.36 13.48 20.63 12.54Q20.90 11.61 21.17 10.75Q21.43 9.90 21.64 9.24L21.64 9.24Q21.80 8.78 21.69 8.52Q21.59 8.26 21.18 8.06L21.18 8.06Q20.57 7.78 19.93 7.57Q19.29 7.36 18.72 7.21L18.72 7.21Q18.23 7.07 17.91 7.10Q17.60 7.13 17.35 7.34Q17.09 7.56 16.86 7.97Q16.62 8.39 16.30 9.03L16.30 9.03Q15.97 9.59 15.63 10.22Q15.29 10.85 14.97 11.48Q14.64 12.11 14.34 12.71Q14.04 13.31 13.82 13.82L13.82 13.82Q13.59 12.38 13.47 11.55Q13.34 10.72 13.28 10.28Q13.22 9.83 13.20 9.65Q13.17 9.48 13.17 9.35L13.17 9.35Q13.12 9.09 13.07 8.88Q13.02 8.67 12.91 8.49Q12.80 8.32 12.60 8.17Q12.40 8.02 12.07 7.90L12.07 7.90Q11.54 7.70 11.01 7.56Q10.49 7.42 9.73 7.31L9.73 7.31Q9.24 7.24 9.01 7.36Q8.78 7.48 8.65 7.95L8.65 7.95Q8.53 8.61 8.39 9.47Q8.26 10.33 8.13 11.30Q7.99 12.26 7.88 13.26Q7.77 14.25 7.68 15.18Q7.59 16.10 7.54 16.89Q7.49 17.68 7.49 18.23L7.49 18.23Q7.46 18.59 7.59 18.79Q7.71 18.98 8.06 19.15L8.06 19.15Q8.34 19.29 8.67 19.40Q9.00 19.50 9.32 19.57L9.32 19.57Q9.66 19.64 9.79 19.57Q9.91 19.49 9.97 19.24L9.97 19.24Q10.02 18.63 10.13 17.86Q10.23 17.09 10.37 16.21Q10.51 15.33 10.68 14.38Q10.85 13.43 11.03 12.47ZM27.19 16.67L27.19 16.67Q27.23 17.25 27.27 17.73Q27.31 18.21 27.37 18.62L27.37 18.62Q27.43 19.01 27.56 19.17Q27.69 19.32 28.03 19.42L28.03 19.42Q28.35 19.53 28.66 19.55Q28.97 19.57 29.33 19.57L29.33 19.57Q29.69 19.57 29.80 19.47Q29.90 19.38 29.90 19.12L29.90 19.12Q29.89 17.92 29.90 16.51Q29.90 15.11 29.93 13.71Q29.96 12.31 30.02 11.02Q30.07 9.73 30.16 8.74L30.16 8.74Q30.20 8.33 30.08 8.08Q29.96 7.83 29.53 7.67L29.53 7.67Q29.20 7.59 28.89 7.49Q28.57 7.39 28.20 7.31Q27.83 7.22 27.38 7.16Q26.94 7.10 26.36 7.07L26.36 7.07Q25.70 7.01 25.37 7.25Q25.03 7.49 24.82 7.87L24.82 7.87Q24.23 8.92 23.58 10.27Q22.93 11.62 22.31 13.01Q21.69 14.39 21.15 15.69Q20.61 17.00 20.27 17.96L20.27 17.96Q20.19 18.26 20.20 18.43Q20.20 18.61 20.27 18.72Q20.34 18.83 20.47 18.91Q20.59 18.98 20.76 19.10L20.76 19.10Q20.99 19.21 21.20 19.30Q21.42 19.39 21.60 19.46L21.60 19.46Q21.92 19.57 22.09 19.53Q22.25 19.49 22.36 19.25L22.36 19.25Q22.55 18.80 22.76 18.33Q22.97 17.86 23.25 17.32L23.25 17.32Q24.05 17.11 25.10 16.96Q26.14 16.81 27.19 16.67ZM24.51 14.71L24.51 14.71Q25.17 13.38 25.82 12.14Q26.47 10.91 27.03 9.88L27.03 9.88Q27.01 11.00 27.02 12.14Q27.03 13.29 27.06 14.43L27.06 14.43Q26.42 14.48 25.78 14.55Q25.14 14.62 24.51 14.71ZM33.94 16.04L33.94 16.04Q34.30 16.49 34.75 16.93Q35.20 17.37 35.64 17.78Q36.09 18.19 36.51 18.52Q36.93 18.86 37.25 19.08L37.25 19.08Q37.74 19.38 38.12 19.41Q38.49 19.45 38.79 19.36L38.79 19.36Q39.05 19.32 39.22 19.29Q39.40 19.25 39.65 19.05L39.65 19.05Q39.86 18.90 39.89 18.76Q39.91 18.62 39.63 18.38L39.63 18.38Q39.28 18.10 38.89 17.72Q38.49 17.35 38.08 16.94Q37.67 16.53 37.29 16.13Q36.90 15.72 36.58 15.36L36.58 15.36Q38.15 14.66 39.28 13.85Q40.40 13.03 40.89 12.07L40.89 12.07Q41.22 11.47 41.03 10.53L41.03 10.53Q40.81 9.65 40.41 9.04Q40.01 8.43 39.52 7.90L39.52 7.90Q38.91 7.29 38.09 7.16Q37.27 7.03 36.35 7.19Q35.43 7.35 34.49 7.73Q33.54 8.11 32.68 8.50L32.68 8.50Q32.49 8.60 32.33 8.99Q32.16 9.39 32.02 10.00Q31.88 10.61 31.75 11.38Q31.63 12.14 31.52 12.95Q31.42 13.76 31.32 14.57Q31.23 15.39 31.16 16.09Q31.09 16.80 31.05 17.36Q31.00 17.92 30.97 18.21L30.97 18.21Q30.94 18.58 31.04 18.80Q31.14 19.01 31.40 19.17L31.40 19.17Q31.67 19.31 31.96 19.36Q32.26 19.42 32.63 19.52L32.63 19.52Q32.96 19.59 33.08 19.52Q33.19 19.45 33.26 19.22L33.26 19.22Q33.42 18.47 33.58 17.68Q33.74 16.90 33.94 16.04ZM35.43 10.36L35.43 10.36Q35.98 10.09 36.47 10.00Q36.96 9.90 37.37 9.90L37.37 9.90Q38.19 9.90 38.36 10.29L38.36 10.29Q38.44 10.53 38.22 10.96Q38.00 11.40 37.49 11.88Q36.99 12.36 36.24 12.83Q35.49 13.30 34.52 13.62L34.52 13.62Q34.79 12.70 35 11.89Q35.21 11.07 35.43 10.36ZM50.57 9.49L50.57 9.49Q51.00 9.46 51.08 9.35Q51.16 9.23 51.07 8.90L51.07 8.90Q50.97 8.54 50.79 8.16Q50.61 7.78 50.33 7.46L50.33 7.46Q50.19 7.28 50.00 7.20Q49.81 7.13 49.38 7.13L49.38 7.13Q48.55 7.15 47.51 7.23Q46.47 7.31 45.38 7.42Q44.30 7.53 43.25 7.67Q42.21 7.81 41.38 7.98L41.38 7.98Q41.12 8.05 41.03 8.15Q40.95 8.26 41.12 8.58L41.12 8.58Q41.27 8.89 41.52 9.34Q41.76 9.79 42.06 10.08L42.06 10.08Q42.34 10.37 42.56 10.44Q42.78 10.50 43.13 10.42L43.13 10.42Q43.39 10.35 43.76 10.30Q44.14 10.25 44.55 10.18L44.55 10.18Q44.34 11.13 44.13 12.24Q43.92 13.36 43.74 14.45Q43.57 15.54 43.44 16.52Q43.32 17.50 43.27 18.17L43.27 18.17Q43.22 18.44 43.29 18.63Q43.36 18.82 43.52 18.96Q43.68 19.10 43.92 19.19Q44.16 19.29 44.45 19.38Q44.74 19.46 44.98 19.53Q45.22 19.60 45.40 19.61Q45.58 19.61 45.69 19.55Q45.79 19.49 45.82 19.29L45.82 19.29Q46.02 18.27 46.28 17.09Q46.54 15.92 46.83 14.68Q47.12 13.44 47.44 12.18Q47.75 10.92 48.05 9.74L48.05 9.74Q48.73 9.67 49.38 9.61Q50.02 9.55 50.57 9.49ZM58.52 16.31L58.52 16.31Q59.36 16.09 60.22 15.77Q61.08 15.46 61.87 15.06Q62.65 14.67 63.31 14.22Q63.98 13.78 64.46 13.30L64.46 13.30Q64.75 13.01 65.00 12.70Q65.24 12.39 65.40 12.05Q65.56 11.72 65.61 11.34Q65.66 10.96 65.56 10.53L65.56 10.53Q65.34 9.65 64.94 9.04Q64.54 8.43 64.06 7.90L64.06 7.90Q63.66 7.50 63.10 7.34Q62.55 7.18 61.91 7.20Q61.26 7.21 60.57 7.37Q59.88 7.53 59.19 7.78Q58.51 8.02 57.86 8.32Q57.22 8.62 56.69 8.90L56.69 8.90Q56.55 8.97 56.44 9.60Q56.34 10.22 56.25 11.14Q56.17 12.07 56.08 13.16Q56 14.25 55.92 15.27Q55.83 16.28 55.73 17.08Q55.62 17.88 55.50 18.21L55.50 18.21Q55.41 18.58 55.55 18.80Q55.68 19.03 55.94 19.17Q56.21 19.32 56.55 19.41Q56.90 19.50 57.26 19.60L57.26 19.60Q57.62 19.67 57.75 19.60Q57.88 19.53 57.95 19.31L57.95 19.31Q58.06 18.59 58.20 17.85Q58.35 17.11 58.52 16.31ZM59.12 13.68L59.12 13.68Q59.33 12.80 59.53 11.98Q59.74 11.17 59.96 10.42L59.96 10.42Q60.48 10.19 60.98 10.08Q61.47 9.97 61.87 9.95Q62.27 9.94 62.53 10.03Q62.79 10.12 62.83 10.29L62.83 10.29Q62.94 10.60 62.75 11.05Q62.55 11.49 62.08 11.98Q61.60 12.46 60.86 12.91Q60.12 13.37 59.12 13.68ZM68.38 16.04L68.38 16.04Q68.74 16.49 69.19 16.93Q69.64 17.37 70.08 17.78Q70.53 18.19 70.95 18.52Q71.37 18.86 71.69 19.08L71.69 19.08Q72.18 19.38 72.55 19.41Q72.93 19.45 73.23 19.36L73.23 19.36Q73.49 19.32 73.66 19.29Q73.84 19.25 74.09 19.05L74.09 19.05Q74.30 18.90 74.33 18.76Q74.35 18.62 74.07 18.38L74.07 18.38Q73.72 18.10 73.33 17.72Q72.93 17.35 72.52 16.94Q72.11 16.53 71.73 16.13Q71.34 15.72 71.02 15.36L71.02 15.36Q72.59 14.66 73.72 13.85Q74.84 13.03 75.33 12.07L75.33 12.07Q75.66 11.47 75.47 10.53L75.47 10.53Q75.25 9.65 74.85 9.04Q74.45 8.43 73.96 7.90L73.96 7.90Q73.35 7.29 72.53 7.16Q71.71 7.03 70.79 7.19Q69.87 7.35 68.93 7.73Q67.98 8.11 67.12 8.50L67.12 8.50Q66.93 8.60 66.77 8.99Q66.60 9.39 66.46 10.00Q66.32 10.61 66.19 11.38Q66.07 12.14 65.96 12.95Q65.86 13.76 65.77 14.57Q65.67 15.39 65.60 16.09Q65.53 16.80 65.48 17.36Q65.44 17.92 65.41 18.21L65.41 18.21Q65.38 18.58 65.48 18.80Q65.58 19.01 65.84 19.17L65.84 19.17Q66.11 19.31 66.40 19.36Q66.70 19.42 67.07 19.52L67.07 19.52Q67.40 19.59 67.52 19.52Q67.63 19.45 67.70 19.22L67.70 19.22Q67.86 18.47 68.02 17.68Q68.18 16.90 68.38 16.04ZM69.87 10.36L69.87 10.36Q70.42 10.09 70.91 10.00Q71.40 9.90 71.81 9.90L71.81 9.90Q72.63 9.90 72.80 10.29L72.80 10.29Q72.88 10.53 72.66 10.96Q72.44 11.40 71.93 11.88Q71.43 12.36 70.68 12.83Q69.93 13.30 68.96 13.62L68.96 13.62Q69.23 12.70 69.44 11.89Q69.65 11.07 69.87 10.36ZM79.65 8.20L79.65 8.20Q79.27 7.95 78.76 7.73Q78.26 7.50 77.83 7.39L77.83 7.39Q77.39 7.27 77.17 7.36Q76.96 7.45 76.83 7.85L76.83 7.85Q76.68 8.51 76.50 9.39Q76.31 10.26 76.14 11.24Q75.96 12.22 75.80 13.24Q75.63 14.27 75.49 15.19Q75.36 16.11 75.27 16.89Q75.18 17.67 75.15 18.16L75.15 18.16Q75.11 18.52 75.21 18.73Q75.32 18.93 75.64 19.08L75.64 19.08Q75.94 19.24 76.27 19.33Q76.59 19.43 76.96 19.53L76.96 19.53Q77.32 19.61 77.44 19.54Q77.56 19.47 77.63 19.24L77.63 19.24Q77.76 18.61 77.93 17.80Q78.11 17.00 78.32 16.09Q78.53 15.19 78.75 14.25Q78.97 13.30 79.20 12.40Q79.44 11.49 79.67 10.68Q79.90 9.87 80.09 9.24L80.09 9.24Q80.19 8.86 80.11 8.67Q80.04 8.47 79.65 8.20ZM87.02 16.38L87.02 16.38Q85.69 16.00 84.87 16.84L84.87 16.84Q83.72 18.02 83.16 17.84L83.16 17.84Q82.87 17.75 82.71 17.36Q82.56 16.97 82.53 16.40Q82.50 15.83 82.59 15.14Q82.68 14.45 82.87 13.75L82.87 13.75Q83.06 13.08 83.40 12.29Q83.75 11.51 84.14 10.86Q84.53 10.21 84.91 9.80Q85.29 9.39 85.57 9.48L85.57 9.48Q85.85 9.59 85.90 9.95Q85.96 10.32 85.95 10.77L85.95 10.77Q85.95 11.02 85.99 11.31L85.99 11.31Q86.04 11.66 86.17 11.93Q86.30 12.19 86.51 12.40Q86.72 12.60 87.04 12.75Q87.36 12.89 87.81 12.98L87.81 12.98Q88.05 13.02 88.19 13.01Q88.33 12.99 88.40 12.94Q88.48 12.88 88.52 12.78Q88.56 12.68 88.61 12.57L88.61 12.57Q88.69 12.32 88.76 12.00Q88.83 11.69 88.87 11.35Q88.91 11.00 88.93 10.65Q88.96 10.30 88.94 9.98L88.94 9.98Q88.93 9.70 88.89 9.46Q88.84 9.21 88.74 8.99Q88.63 8.76 88.46 8.55Q88.28 8.33 88.02 8.11L88.02 8.11Q87.74 7.92 87.39 7.75Q87.04 7.57 86.65 7.43Q86.25 7.28 85.83 7.18Q85.41 7.07 85.02 7.03L85.02 7.03Q84.49 6.99 83.89 7.14Q83.29 7.29 82.70 7.80L82.70 7.80Q81.97 8.43 81.40 9.26Q80.84 10.09 80.43 11.03Q80.02 11.97 79.79 12.96Q79.56 13.94 79.52 14.88Q79.48 15.81 79.62 16.63Q79.77 17.44 80.14 18.05L80.14 18.05Q80.35 18.44 80.72 18.73Q81.10 19.03 81.48 19.18L81.48 19.18Q81.90 19.32 82.43 19.48Q82.96 19.64 83.62 19.68L83.62 19.68Q83.93 19.71 84.26 19.68Q84.59 19.66 84.89 19.59Q85.19 19.52 85.46 19.40Q85.74 19.29 85.93 19.17L85.93 19.17Q86.32 18.89 86.72 18.47Q87.11 18.05 87.36 17.54L87.36 17.54Q87.60 17.11 87.58 16.81Q87.56 16.52 87.02 16.38ZM89.95 8.15L89.95 8.15L88.62 17.46Q88.59 17.84 88.72 18.10Q88.86 18.37 89.10 18.56L89.10 18.56Q89.39 18.82 89.61 18.98Q89.82 19.14 90.06 19.29L90.06 19.29Q90.27 19.43 90.56 19.51Q90.85 19.59 91.41 19.45L91.41 19.45Q92.25 19.29 93.17 19.11Q94.09 18.93 94.99 18.76L94.99 18.76Q95.37 18.69 95.44 18.59Q95.51 18.48 95.44 18.20L95.44 18.20Q95.33 17.95 95.23 17.70Q95.14 17.46 94.98 17.18L94.98 17.18Q94.82 16.93 94.60 16.84Q94.39 16.76 94.00 16.79L94.00 16.79Q93.30 16.83 92.70 16.90Q92.11 16.97 91.45 17.08L91.45 17.08Q91.56 16.69 91.66 16.29Q91.76 15.89 91.87 15.44L91.87 15.44Q92.68 15.27 93.55 15.13Q94.43 14.99 95.27 14.84L95.27 14.84Q95.66 14.76 95.75 14.64Q95.84 14.53 95.73 14.21L95.73 14.21Q95.66 13.93 95.57 13.66Q95.48 13.38 95.31 13.10L95.31 13.10Q95.16 12.82 94.93 12.74Q94.71 12.66 94.32 12.67L94.32 12.67Q93.84 12.68 93.42 12.71Q93.00 12.74 92.58 12.80L92.58 12.80Q92.81 12.05 92.99 11.38Q93.17 10.70 93.38 10.07L93.38 10.07Q94.37 9.93 95.27 9.83Q96.17 9.73 97.01 9.63L97.01 9.63Q97.41 9.58 97.52 9.45Q97.64 9.32 97.58 8.96L97.58 8.96Q97.51 8.64 97.44 8.37Q97.37 8.09 97.19 7.76L97.19 7.76Q96.96 7.13 96.17 7.14L96.17 7.14Q95.33 7.17 94.48 7.27Q93.63 7.38 92.83 7.52Q92.02 7.66 91.29 7.83Q90.55 7.99 89.95 8.15ZM111.50 9.49L111.50 9.49Q111.93 9.46 112.01 9.35Q112.08 9.23 112 8.90L112 8.90Q111.90 8.54 111.72 8.16Q111.54 7.78 111.26 7.46L111.26 7.46Q111.12 7.28 110.93 7.20Q110.74 7.13 110.31 7.13L110.31 7.13Q109.48 7.15 108.44 7.23Q107.39 7.31 106.31 7.42Q105.22 7.53 104.18 7.67Q103.14 7.81 102.31 7.98L102.31 7.98Q102.05 8.05 101.96 8.15Q101.88 8.26 102.05 8.58L102.05 8.58Q102.20 8.89 102.44 9.34Q102.69 9.79 102.98 10.08L102.98 10.08Q103.26 10.37 103.49 10.44Q103.71 10.50 104.06 10.42L104.06 10.42Q104.31 10.35 104.69 10.30Q105.07 10.25 105.48 10.18L105.48 10.18Q105.27 11.13 105.06 12.24Q104.85 13.36 104.67 14.45Q104.50 15.54 104.37 16.52Q104.24 17.50 104.20 18.17L104.20 18.17Q104.15 18.44 104.22 18.63Q104.29 18.82 104.45 18.96Q104.61 19.10 104.85 19.19Q105.08 19.29 105.38 19.38Q105.67 19.46 105.91 19.53Q106.15 19.60 106.33 19.61Q106.51 19.61 106.62 19.55Q106.72 19.49 106.75 19.29L106.75 19.29Q106.95 18.27 107.20 17.09Q107.46 15.92 107.76 14.68Q108.05 13.44 108.37 12.18Q108.68 10.92 108.98 9.74L108.98 9.74Q109.66 9.67 110.31 9.61Q110.95 9.55 111.50 9.49ZM114.34 16.04L114.34 16.04Q114.70 16.49 115.15 16.93Q115.60 17.37 116.05 17.78Q116.49 18.19 116.91 18.52Q117.33 18.86 117.66 19.08L117.66 19.08Q118.15 19.38 118.52 19.41Q118.89 19.45 119.20 19.36L119.20 19.36Q119.45 19.32 119.62 19.29Q119.80 19.25 120.05 19.05L120.05 19.05Q120.26 18.90 120.29 18.76Q120.32 18.62 120.04 18.38L120.04 18.38Q119.69 18.10 119.29 17.72Q118.89 17.35 118.48 16.94Q118.08 16.53 117.69 16.13Q117.31 15.72 116.98 15.36L116.98 15.36Q118.55 14.66 119.68 13.85Q120.81 13.03 121.30 12.07L121.30 12.07Q121.62 11.47 121.44 10.53L121.44 10.53Q121.21 9.65 120.81 9.04Q120.41 8.43 119.92 7.90L119.92 7.90Q119.31 7.29 118.49 7.16Q117.67 7.03 116.75 7.19Q115.84 7.35 114.89 7.73Q113.95 8.11 113.08 8.50L113.08 8.50Q112.90 8.60 112.73 8.99Q112.56 9.39 112.42 10.00Q112.28 10.61 112.15 11.38Q112.03 12.14 111.92 12.95Q111.82 13.76 111.73 14.57Q111.64 15.39 111.57 16.09Q111.50 16.80 111.45 17.36Q111.40 17.92 111.37 18.21L111.37 18.21Q111.34 18.58 111.44 18.80Q111.54 19.01 111.80 19.17L111.80 19.17Q112.07 19.31 112.36 19.36Q112.66 19.42 113.04 19.52L113.04 19.52Q113.36 19.59 113.48 19.52Q113.60 19.45 113.67 19.22L113.67 19.22Q113.82 18.47 113.98 17.68Q114.14 16.90 114.34 16.04ZM115.84 10.36L115.84 10.36Q116.38 10.09 116.87 10.00Q117.36 9.90 117.77 9.90L117.77 9.90Q118.59 9.90 118.76 10.29L118.76 10.29Q118.85 10.53 118.62 10.96Q118.40 11.40 117.89 11.88Q117.39 12.36 116.64 12.83Q115.89 13.30 114.93 13.62L114.93 13.62Q115.19 12.70 115.40 11.89Q115.61 11.07 115.84 10.36ZM127.82 16.67L127.82 16.67Q127.86 17.25 127.90 17.73Q127.95 18.21 128.00 18.62L128.00 18.62Q128.06 19.01 128.19 19.17Q128.32 19.32 128.66 19.42L128.66 19.42Q128.98 19.53 129.29 19.55Q129.60 19.57 129.96 19.57L129.96 19.57Q130.33 19.57 130.43 19.47Q130.54 19.38 130.54 19.12L130.54 19.12Q130.52 17.92 130.53 16.51Q130.54 15.11 130.56 13.71Q130.59 12.31 130.65 11.02Q130.70 9.73 130.79 8.74L130.79 8.74Q130.83 8.33 130.71 8.08Q130.59 7.83 130.16 7.67L130.16 7.67Q129.84 7.59 129.52 7.49Q129.21 7.39 128.84 7.31Q128.46 7.22 128.02 7.16Q127.57 7.10 126.99 7.07L126.99 7.07Q126.34 7.01 126 7.25Q125.66 7.49 125.45 7.87L125.45 7.87Q124.87 8.92 124.22 10.27Q123.56 11.62 122.94 13.01Q122.32 14.39 121.78 15.69Q121.24 17.00 120.90 17.96L120.90 17.96Q120.82 18.26 120.83 18.43Q120.83 18.61 120.90 18.72Q120.97 18.83 121.10 18.91Q121.23 18.98 121.39 19.10L121.39 19.10Q121.62 19.21 121.83 19.30Q122.05 19.39 122.23 19.46L122.23 19.46Q122.56 19.57 122.72 19.53Q122.88 19.49 122.99 19.25L122.99 19.25Q123.19 18.80 123.40 18.33Q123.61 17.86 123.89 17.32L123.89 17.32Q124.68 17.11 125.73 16.96Q126.77 16.81 127.82 16.67ZM125.15 14.71L125.15 14.71Q125.80 13.38 126.45 12.14Q127.11 10.91 127.67 9.88L127.67 9.88Q127.64 11.00 127.65 12.14Q127.67 13.29 127.69 14.43L127.69 14.43Q127.05 14.48 126.41 14.55Q125.78 14.62 125.15 14.71ZM138.67 16.38L138.67 16.38Q137.34 16.00 136.51 16.84L136.51 16.84Q135.37 18.02 134.81 17.84L134.81 17.84Q134.51 17.75 134.36 17.36Q134.20 16.97 134.18 16.40Q134.15 15.83 134.24 15.14Q134.33 14.45 134.51 13.75L134.51 13.75Q134.71 13.08 135.05 12.29Q135.39 11.51 135.79 10.86Q136.18 10.21 136.56 9.80Q136.93 9.39 137.21 9.48L137.21 9.48Q137.49 9.59 137.55 9.95Q137.61 10.32 137.59 10.77L137.59 10.77Q137.59 11.02 137.63 11.31L137.63 11.31Q137.69 11.66 137.82 11.93Q137.94 12.19 138.15 12.40Q138.36 12.60 138.68 12.75Q139.01 12.89 139.45 12.98L139.45 12.98Q139.69 13.02 139.83 13.01Q139.97 12.99 140.05 12.94Q140.13 12.88 140.17 12.78Q140.21 12.68 140.25 12.57L140.25 12.57Q140.34 12.32 140.41 12.00Q140.48 11.69 140.52 11.35Q140.56 11.00 140.58 10.65Q140.60 10.30 140.59 9.98L140.59 9.98Q140.57 9.70 140.53 9.46Q140.49 9.21 140.38 8.99Q140.28 8.76 140.10 8.55Q139.93 8.33 139.66 8.11L139.66 8.11Q139.38 7.92 139.03 7.75Q138.68 7.57 138.29 7.43Q137.90 7.28 137.48 7.18Q137.06 7.07 136.67 7.03L136.67 7.03Q136.14 6.99 135.53 7.14Q134.93 7.29 134.34 7.80L134.34 7.80Q133.62 8.43 133.05 9.26Q132.48 10.09 132.08 11.03Q131.67 11.97 131.44 12.96Q131.21 13.94 131.17 14.88Q131.12 15.81 131.27 16.63Q131.42 17.44 131.78 18.05L131.78 18.05Q131.99 18.44 132.37 18.73Q132.75 19.03 133.13 19.18L133.13 19.18Q133.55 19.32 134.08 19.48Q134.61 19.64 135.27 19.68L135.27 19.68Q135.58 19.71 135.91 19.68Q136.23 19.66 136.53 19.59Q136.84 19.52 137.11 19.40Q137.38 19.29 137.58 19.17L137.58 19.17Q137.97 18.89 138.36 18.47Q138.75 18.05 139.01 17.54L139.01 17.54Q139.24 17.11 139.22 16.81Q139.20 16.52 138.67 16.38ZM145.67 15.08L145.67 15.08Q146.29 14.49 146.97 13.82Q147.66 13.15 148.29 12.47Q148.93 11.79 149.47 11.14Q150.01 10.49 150.33 9.95L150.33 9.95Q150.60 9.52 150.63 9.23Q150.67 8.93 150.56 8.62L150.56 8.62Q150.37 8.25 150.17 7.92Q149.97 7.60 149.66 7.34L149.66 7.34Q149.37 7.08 149.13 7.08L149.13 7.08Q148.92 7.08 148.68 7.39L148.68 7.39Q148.32 7.84 147.75 8.48Q147.18 9.13 146.53 9.84Q145.88 10.56 145.19 11.29Q144.51 12.03 143.92 12.67L143.92 12.67Q144.16 11.58 144.37 10.66Q144.58 9.74 144.79 9.03L144.79 9.03Q144.84 8.85 144.86 8.71Q144.87 8.58 144.82 8.47Q144.76 8.36 144.63 8.25Q144.51 8.15 144.30 8.01L144.30 8.01Q143.92 7.76 143.41 7.53Q142.90 7.31 142.45 7.20L142.45 7.20Q142.04 7.07 141.82 7.16Q141.60 7.25 141.48 7.64L141.48 7.64Q141.34 8.30 141.19 9.20Q141.04 10.09 140.88 11.10Q140.73 12.10 140.59 13.14Q140.45 14.18 140.34 15.13Q140.22 16.09 140.15 16.88Q140.08 17.67 140.07 18.16L140.07 18.16Q140.04 18.68 140.32 18.93Q140.60 19.18 141.23 19.35L141.23 19.35Q141.54 19.43 141.80 19.51Q142.06 19.59 142.24 19.59Q142.42 19.60 142.52 19.52Q142.62 19.45 142.62 19.24L142.62 19.24Q142.73 18.61 142.87 17.84Q143.01 17.07 143.19 16.14L143.19 16.14Q143.49 16.56 143.83 16.99Q144.17 17.42 144.49 17.79Q144.80 18.17 145.07 18.47Q145.33 18.76 145.49 18.93L145.49 18.93Q145.87 19.33 146.24 19.39Q146.62 19.45 146.99 19.35L146.99 19.35Q147.22 19.32 147.47 19.25Q147.71 19.18 147.90 19.08L147.90 19.08Q148.20 18.94 148.25 18.80Q148.30 18.65 148.06 18.41L148.06 18.41Q147.84 18.16 147.55 17.78Q147.25 17.40 146.93 16.95Q146.61 16.51 146.28 16.02Q145.95 15.54 145.67 15.08ZM150.89 8.15L150.89 8.15L149.56 17.46Q149.53 17.84 149.67 18.10Q149.80 18.37 150.04 18.56L150.04 18.56Q150.33 18.82 150.55 18.98Q150.77 19.14 151.00 19.29L151.00 19.29Q151.21 19.43 151.50 19.51Q151.79 19.59 152.35 19.45L152.35 19.45Q153.19 19.29 154.11 19.11Q155.04 18.93 155.93 18.76L155.93 18.76Q156.31 18.69 156.38 18.59Q156.45 18.48 156.38 18.20L156.38 18.20Q156.27 17.95 156.18 17.70Q156.09 17.46 155.92 17.18L155.92 17.18Q155.76 16.93 155.55 16.84Q155.33 16.76 154.94 16.79L154.94 16.79Q154.24 16.83 153.64 16.90Q153.05 16.97 152.39 17.08L152.39 17.08Q152.50 16.69 152.60 16.29Q152.70 15.89 152.81 15.44L152.81 15.44Q153.62 15.27 154.50 15.13Q155.37 14.99 156.21 14.84L156.21 14.84Q156.60 14.76 156.69 14.64Q156.79 14.53 156.67 14.21L156.67 14.21Q156.60 13.93 156.51 13.66Q156.42 13.38 156.25 13.10L156.25 13.10Q156.10 12.82 155.88 12.74Q155.65 12.66 155.26 12.67L155.26 12.67Q154.78 12.68 154.36 12.71Q153.94 12.74 153.52 12.80L153.52 12.80Q153.75 12.05 153.93 11.38Q154.11 10.70 154.32 10.07L154.32 10.07Q155.32 9.93 156.21 9.83Q157.11 9.73 157.95 9.63L157.95 9.63Q158.35 9.58 158.47 9.45Q158.58 9.32 158.52 8.96L158.52 8.96Q158.45 8.64 158.38 8.37Q158.31 8.09 158.13 7.76L158.13 7.76Q157.91 7.13 157.11 7.14L157.11 7.14Q156.27 7.17 155.42 7.27Q154.57 7.38 153.77 7.52Q152.96 7.66 152.23 7.83Q151.49 7.99 150.89 8.15ZM160.93 16.04L160.93 16.04Q161.29 16.49 161.74 16.93Q162.19 17.37 162.64 17.78Q163.09 18.19 163.51 18.52Q163.93 18.86 164.25 19.08L164.25 19.08Q164.74 19.38 165.11 19.41Q165.48 19.45 165.79 19.36L165.79 19.36Q166.04 19.32 166.21 19.29Q166.39 19.25 166.64 19.05L166.64 19.05Q166.85 18.90 166.88 18.76Q166.91 18.62 166.63 18.38L166.63 18.38Q166.28 18.10 165.88 17.72Q165.48 17.35 165.07 16.94Q164.67 16.53 164.28 16.13Q163.90 15.72 163.58 15.36L163.58 15.36Q165.14 14.66 166.27 13.85Q167.40 13.03 167.89 12.07L167.89 12.07Q168.21 11.47 168.03 10.53L168.03 10.53Q167.80 9.65 167.40 9.04Q167.01 8.43 166.52 7.90L166.52 7.90Q165.90 7.29 165.08 7.16Q164.26 7.03 163.34 7.19Q162.43 7.35 161.48 7.73Q160.54 8.11 159.67 8.50L159.67 8.50Q159.49 8.60 159.32 8.99Q159.15 9.39 159.01 10.00Q158.87 10.61 158.75 11.38Q158.62 12.14 158.51 12.95Q158.41 13.76 158.32 14.57Q158.23 15.39 158.16 16.09Q158.09 16.80 158.04 17.36Q157.99 17.92 157.96 18.21L157.96 18.21Q157.93 18.58 158.03 18.80Q158.13 19.01 158.40 19.17L158.40 19.17Q158.66 19.31 158.96 19.36Q159.25 19.42 159.63 19.52L159.63 19.52Q159.95 19.59 160.07 19.52Q160.19 19.45 160.26 19.22L160.26 19.22Q160.41 18.47 160.57 17.68Q160.73 16.90 160.93 16.04ZM162.43 10.36L162.43 10.36Q162.97 10.09 163.46 10.00Q163.95 9.90 164.36 9.90L164.36 9.90Q165.19 9.90 165.35 10.29L165.35 10.29Q165.44 10.53 165.21 10.96Q164.99 11.40 164.49 11.88Q163.98 12.36 163.23 12.83Q162.48 13.30 161.52 13.62L161.52 13.62Q161.78 12.70 161.99 11.89Q162.20 11.07 162.43 10.36Z"></path></g><!----><g data-v-423bf9ae="" id="90b891b7-b7a8-42d5-9c9e-ac13ba4872e8" transform="matrix(1.0868111504448785,0,0,1.0868111504448785,-13.255261890115804,-0.23894260335429607)" stroke="none" fill="white"><g clip-rule="evenodd"><path d="M12.983 10.59l17.018 88.223-5.872-59.049 29.021-1.892-.054-9.883L64.549 1 53.622 18.977z"></path><path d="M59.389 54.548l5.16-53.541-8.74 39.716-19.612 1.045 1.57 20.462-7.766 36.583 12.057-39.899z"></path><path d="M62.8 67.182l.549-10.453-15.979 3.755-.032 11.797-17.337 26.532 21.68-27.616zM65.711 62.394l14.841-4.731 1.509-12.532-15.899 2.095zM72.07 44.502l10.988-1.417 1.581-10.278-8.079-.373L64.549 1l8.43 30.967z"></path><path d="M87.413 31.294l1.256-9.506-9.544-2.694L64.549 1l14.483 22.437-.422 7z"></path></g></g><!----><g data-v-423bf9ae="" id="b72828f2-40d4-4b07-850c-2641b146074d" fill="white" transform="matrix(1.4358172924010157,0,0,1.4358172924010157,101.05029629983619,56.48224622592415)"><path d="M9.51 3.86L10.36 12.60L10.78 12.60L9.73 2.45L5.81 10.70L1.89 2.45L0.84 12.60L1.26 12.60L2.11 3.86L5.81 11.69ZM23.10 2.45L18.83 12.60L19.32 12.60L20.59 9.52L25.61 9.52L26.88 12.60L27.37 12.60ZM23.10 3.50L25.41 9.07L20.79 9.07ZM35.77 2.80L35.77 12.60L36.19 12.60L36.19 7.56L40.63 12.60L41.22 12.60L36.62 7.39L41.01 2.80L40.43 2.80L36.19 7.24L36.19 2.80ZM50.11 7.48L54.45 7.48L54.45 7.08L50.11 7.08L50.11 3.21L54.73 3.21L54.73 2.80L49.69 2.80L49.69 12.60L54.73 12.60L54.73 12.19L50.11 12.19ZM74.98 9.74L74.61 9.90C75.23 11.77 76.28 12.71 77.76 12.71C78.67 12.71 79.36 12.45 79.83 11.93C80.29 11.41 80.53 10.77 80.53 10.01C80.53 9.66 80.47 9.35 80.35 9.06C80.24 8.78 80.11 8.55 79.96 8.37C79.82 8.19 79.61 8.02 79.35 7.86C79.09 7.70 78.88 7.58 78.72 7.50C78.55 7.43 78.33 7.34 78.05 7.22C78.01 7.21 77.90 7.16 77.70 7.08C77.50 7.01 77.38 6.96 77.34 6.94C77.29 6.91 77.18 6.87 77.01 6.80C76.85 6.73 76.74 6.67 76.69 6.64C76.63 6.60 76.54 6.54 76.41 6.45C76.28 6.37 76.19 6.30 76.15 6.24C76.10 6.18 76.03 6.10 75.95 6.00C75.87 5.90 75.81 5.80 75.78 5.70C75.74 5.61 75.71 5.50 75.68 5.38C75.66 5.25 75.64 5.12 75.64 4.98C75.64 4.41 75.84 3.95 76.24 3.62C76.63 3.29 77.13 3.12 77.71 3.12C78.84 3.12 79.63 3.77 80.07 5.07L80.47 4.90C80.27 4.23 79.93 3.69 79.46 3.29C79.00 2.89 78.42 2.69 77.73 2.69C77.04 2.69 76.44 2.90 75.93 3.33C75.42 3.76 75.17 4.33 75.17 5.04C75.17 5.39 75.24 5.71 75.38 5.99C75.53 6.27 75.74 6.51 76.03 6.71C76.31 6.91 76.57 7.07 76.80 7.17C77.03 7.28 77.32 7.41 77.69 7.55C77.97 7.65 78.16 7.72 78.26 7.77C78.36 7.82 78.54 7.90 78.78 8.02C79.02 8.13 79.20 8.24 79.30 8.34C79.41 8.45 79.54 8.58 79.68 8.75C79.83 8.92 79.93 9.11 79.98 9.32C80.04 9.54 80.07 9.78 80.07 10.05C80.07 10.72 79.88 11.27 79.50 11.68C79.12 12.09 78.55 12.29 77.80 12.29C76.57 12.29 75.63 11.44 74.98 9.74ZM97.80 3.86L98.66 12.60L99.08 12.60L98.03 2.45L94.11 10.70L90.19 2.45L89.14 12.60L89.56 12.60L90.41 3.86L94.11 11.69ZM111.40 2.45L107.13 12.60L107.62 12.60L108.89 9.52L113.90 9.52L115.18 12.60L115.67 12.60ZM111.40 3.50L113.71 9.07L109.09 9.07ZM124.56 2.80ZM124.14 2.80L124.14 12.60L124.56 12.60L124.56 8.48L126.11 8.48L129.23 12.60L129.78 12.60L126.59 8.47C127.48 8.41 128.20 8.15 128.74 7.67C129.27 7.20 129.54 6.52 129.54 5.64C129.54 4.71 129.24 4.00 128.63 3.52C128.03 3.04 127.23 2.80 126.24 2.80ZM124.56 3.21L126.24 3.21C127.11 3.21 127.80 3.41 128.32 3.83C128.85 4.24 129.11 4.85 129.11 5.64C129.11 6.44 128.85 7.04 128.32 7.45C127.80 7.87 127.11 8.08 126.24 8.08L124.56 8.08ZM137.20 3.21L139.72 3.21L139.72 12.60L140.14 12.60L140.14 3.21L142.66 3.21L142.66 2.80L137.20 2.80ZM162.40 2.80L162.40 12.60L162.82 12.60L162.82 8.48L164.50 8.48C165.46 8.48 166.23 8.23 166.80 7.73C167.38 7.22 167.66 6.53 167.66 5.64C167.66 4.76 167.38 4.06 166.80 3.56C166.23 3.05 165.46 2.80 164.50 2.80ZM162.82 3.21L164.50 3.21C165.36 3.21 166.03 3.41 166.51 3.83C166.99 4.24 167.23 4.85 167.23 5.64C167.23 6.44 166.99 7.04 166.51 7.45C166.03 7.87 165.36 8.08 164.50 8.08L162.82 8.08ZM176.55 2.80L176.55 9.24C176.55 10.29 176.84 11.13 177.41 11.77C177.98 12.42 178.73 12.74 179.68 12.74C180.62 12.74 181.37 12.42 181.94 11.77C182.51 11.13 182.80 10.29 182.80 9.24L182.80 2.80L182.38 2.80L182.38 9.24C182.38 10.17 182.12 10.92 181.62 11.47C181.11 12.02 180.46 12.29 179.68 12.29C178.89 12.29 178.25 12.02 177.74 11.47C177.23 10.92 176.97 10.17 176.97 9.24L176.97 2.80ZM192.67 2.80ZM192.25 2.80L192.25 12.60L192.67 12.60L192.67 8.48L194.22 8.48L197.34 12.60L197.89 12.60L194.70 8.47C195.59 8.41 196.31 8.15 196.85 7.67C197.38 7.20 197.65 6.52 197.65 5.64C197.65 4.71 197.35 4.00 196.74 3.52C196.14 3.04 195.34 2.80 194.35 2.80ZM192.67 3.21L194.35 3.21C195.22 3.21 195.91 3.41 196.43 3.83C196.96 4.24 197.22 4.85 197.22 5.64C197.22 6.44 196.96 7.04 196.43 7.45C195.91 7.87 195.22 8.08 194.35 8.08L192.67 8.08ZM206.19 7.70C206.19 6.33 206.57 5.22 207.33 4.38C208.09 3.53 209.10 3.11 210.35 3.11C211.54 3.11 212.59 3.54 213.50 4.41L213.50 3.81C212.65 3.06 211.60 2.69 210.35 2.69C209.00 2.69 207.89 3.16 207.03 4.09C206.16 5.03 205.73 6.23 205.73 7.70C205.73 9.17 206.16 10.37 207.03 11.30C207.89 12.24 209.00 12.71 210.35 12.71C211.60 12.71 212.65 12.34 213.50 11.59L213.50 11.03C212.63 11.87 211.58 12.29 210.35 12.29C209.10 12.29 208.09 11.87 207.33 11.03C206.57 10.18 206.19 9.07 206.19 7.70ZM222.88 2.80L222.88 12.60L223.30 12.60L223.30 7.62L229.53 7.62L229.53 12.60L229.95 12.60L229.95 2.80L229.53 2.80L229.53 7.18L223.30 7.18L223.30 2.80ZM242.69 2.45L238.42 12.60L238.91 12.60L240.18 9.52L245.20 9.52L246.47 12.60L246.96 12.60ZM242.69 3.50L245 9.07L240.38 9.07ZM255.11 9.74L254.73 9.90C255.36 11.77 256.41 12.71 257.88 12.71C258.79 12.71 259.49 12.45 259.95 11.93C260.42 11.41 260.65 10.77 260.65 10.01C260.65 9.66 260.59 9.35 260.48 9.06C260.36 8.78 260.23 8.55 260.09 8.37C259.94 8.19 259.74 8.02 259.48 7.86C259.21 7.70 259.00 7.58 258.84 7.50C258.68 7.43 258.45 7.34 258.17 7.22C258.14 7.21 258.02 7.16 257.82 7.08C257.63 7.01 257.51 6.96 257.46 6.94C257.41 6.91 257.31 6.87 257.14 6.80C256.97 6.73 256.86 6.67 256.81 6.64C256.76 6.60 256.67 6.54 256.54 6.45C256.41 6.37 256.32 6.30 256.27 6.24C256.22 6.18 256.16 6.10 256.07 6.00C255.99 5.90 255.93 5.80 255.90 5.70C255.87 5.61 255.84 5.50 255.81 5.38C255.78 5.25 255.77 5.12 255.77 4.98C255.77 4.41 255.96 3.95 256.36 3.62C256.76 3.29 257.25 3.12 257.84 3.12C258.97 3.12 259.75 3.77 260.19 5.07L260.60 4.90C260.39 4.23 260.05 3.69 259.59 3.29C259.12 2.89 258.54 2.69 257.85 2.69C257.16 2.69 256.56 2.90 256.05 3.33C255.54 3.76 255.29 4.33 255.29 5.04C255.29 5.39 255.36 5.71 255.51 5.99C255.65 6.27 255.87 6.51 256.15 6.71C256.44 6.91 256.69 7.07 256.92 7.17C257.15 7.28 257.45 7.41 257.81 7.55C258.09 7.65 258.28 7.72 258.38 7.77C258.49 7.82 258.66 7.90 258.90 8.02C259.14 8.13 259.32 8.24 259.43 8.34C259.53 8.45 259.66 8.58 259.81 8.75C259.95 8.92 260.05 9.11 260.11 9.32C260.16 9.54 260.19 9.78 260.19 10.05C260.19 10.72 260.00 11.27 259.62 11.68C259.25 12.09 258.68 12.29 257.92 12.29C256.69 12.29 255.75 11.44 255.11 9.74ZM269.61 2.80L269.61 12.60L270.03 12.60L270.03 2.80ZM286.41 2.80L286.41 11.79L278.92 2.45L278.92 12.60L279.34 12.60L279.34 3.61L286.83 12.95L286.83 2.80ZM304.47 7.63L300.41 7.63L300.41 8.11L304.00 8.11C303.91 9.32 303.52 10.32 302.81 11.09C302.10 11.87 301.16 12.26 299.99 12.26C298.70 12.26 297.66 11.82 296.87 10.94C296.08 10.06 295.68 8.98 295.68 7.70C295.68 6.40 296.08 5.32 296.89 4.45C297.70 3.57 298.73 3.14 299.99 3.14C300.74 3.14 301.43 3.31 302.07 3.65C302.71 4.00 303.22 4.47 303.60 5.05L304.00 4.75C303.56 4.11 303.00 3.61 302.32 3.24C301.63 2.87 300.86 2.69 299.99 2.69C298.64 2.69 297.51 3.17 296.60 4.13C295.69 5.09 295.23 6.28 295.23 7.70C295.23 9.12 295.69 10.31 296.60 11.27C297.51 12.23 298.64 12.71 299.99 12.71C301.36 12.71 302.45 12.22 303.26 11.23C304.07 10.25 304.47 9.05 304.47 7.63ZM324.70 2.80L324.70 12.60L327.08 12.60C328.50 12.60 329.64 12.15 330.49 11.25C331.35 10.35 331.77 9.17 331.77 7.70C331.77 6.23 331.35 5.05 330.49 4.15C329.64 3.25 328.50 2.80 327.08 2.80ZM325.12 3.22L327.08 3.22C328.38 3.22 329.41 3.63 330.18 4.46C330.94 5.28 331.32 6.37 331.32 7.70C331.32 9.09 330.95 10.18 330.19 10.98C329.43 11.78 328.40 12.18 327.08 12.18L325.12 12.18ZM341.15 7.48L345.49 7.48L345.49 7.08L341.15 7.08L341.15 3.21L345.77 3.21L345.77 2.80L340.73 2.80L340.73 12.60L345.77 12.60L345.77 12.19L341.15 12.19ZM355.05 7.70C355.05 6.33 355.43 5.22 356.19 4.38C356.96 3.53 357.96 3.11 359.21 3.11C360.41 3.11 361.46 3.54 362.36 4.41L362.36 3.81C361.51 3.06 360.46 2.69 359.21 2.69C357.86 2.69 356.75 3.16 355.89 4.09C355.02 5.03 354.59 6.23 354.59 7.70C354.59 9.17 355.02 10.37 355.89 11.30C356.75 12.24 357.86 12.71 359.21 12.71C360.46 12.71 361.51 12.34 362.36 11.59L362.36 11.03C361.49 11.87 360.44 12.29 359.21 12.29C357.96 12.29 356.96 11.87 356.19 11.03C355.43 10.18 355.05 9.07 355.05 7.70ZM371.67 2.80L371.67 12.60L372.09 12.60L372.09 2.80ZM381.22 9.74L380.84 9.90C381.47 11.77 382.52 12.71 383.99 12.71C384.91 12.71 385.60 12.45 386.06 11.93C386.53 11.41 386.76 10.77 386.76 10.01C386.76 9.66 386.71 9.35 386.59 9.06C386.47 8.78 386.34 8.55 386.20 8.37C386.05 8.19 385.85 8.02 385.59 7.86C385.33 7.70 385.11 7.58 384.95 7.50C384.79 7.43 384.57 7.34 384.29 7.22C384.25 7.21 384.13 7.16 383.94 7.08C383.74 7.01 383.62 6.96 383.57 6.94C383.53 6.91 383.42 6.87 383.25 6.80C383.08 6.73 382.97 6.67 382.92 6.64C382.87 6.60 382.78 6.54 382.65 6.45C382.52 6.37 382.43 6.30 382.38 6.24C382.34 6.18 382.27 6.10 382.19 6.00C382.10 5.90 382.04 5.80 382.01 5.70C381.98 5.61 381.95 5.50 381.92 5.38C381.89 5.25 381.88 5.12 381.88 4.98C381.88 4.41 382.08 3.95 382.47 3.62C382.87 3.29 383.36 3.12 383.95 3.12C385.08 3.12 385.86 3.77 386.30 5.07L386.71 4.90C386.50 4.23 386.17 3.69 385.70 3.29C385.23 2.89 384.65 2.69 383.96 2.69C383.27 2.69 382.67 2.90 382.16 3.33C381.66 3.76 381.40 4.33 381.40 5.04C381.40 5.39 381.47 5.71 381.62 5.99C381.76 6.27 381.98 6.51 382.26 6.71C382.55 6.91 382.80 7.07 383.03 7.17C383.26 7.28 383.56 7.41 383.92 7.55C384.20 7.65 384.39 7.72 384.50 7.77C384.60 7.82 384.77 7.90 385.01 8.02C385.26 8.13 385.43 8.24 385.54 8.34C385.65 8.45 385.77 8.58 385.92 8.75C386.06 8.92 386.16 9.11 386.22 9.32C386.27 9.54 386.30 9.78 386.30 10.05C386.30 10.72 386.11 11.27 385.73 11.68C385.36 12.09 384.79 12.29 384.03 12.29C382.80 12.29 381.86 11.44 381.22 9.74ZM395.72 2.80L395.72 12.60L396.14 12.60L396.14 2.80ZM405.45 7.70C405.45 6.38 405.86 5.29 406.67 4.41C407.48 3.53 408.51 3.09 409.75 3.09C410.99 3.09 412.02 3.53 412.83 4.41C413.64 5.29 414.05 6.38 414.05 7.70C414.05 9.02 413.64 10.11 412.83 10.99C412.02 11.87 410.99 12.31 409.75 12.31C408.51 12.31 407.48 11.87 406.67 10.99C405.86 10.11 405.45 9.02 405.45 7.70ZM405.03 7.70C405.03 9.16 405.48 10.36 406.37 11.30C407.26 12.24 408.39 12.71 409.75 12.71C411.11 12.71 412.24 12.24 413.13 11.30C414.02 10.36 414.47 9.16 414.47 7.70C414.47 6.24 414.02 5.04 413.13 4.10C412.24 3.16 411.11 2.69 409.75 2.69C408.39 2.69 407.26 3.16 406.37 4.10C405.48 5.04 405.03 6.24 405.03 7.70ZM430.36 2.80L430.36 11.79L422.87 2.45L422.87 12.60L423.29 12.60L423.29 3.61L430.78 12.95L430.78 2.80ZM439.42 9.74L439.04 9.90C439.67 11.77 440.72 12.71 442.19 12.71C443.10 12.71 443.80 12.45 444.26 11.93C444.73 11.41 444.96 10.77 444.96 10.01C444.96 9.66 444.90 9.35 444.79 9.06C444.67 8.78 444.54 8.55 444.40 8.37C444.25 8.19 444.05 8.02 443.79 7.86C443.52 7.70 443.31 7.58 443.15 7.50C442.99 7.43 442.76 7.34 442.48 7.22C442.45 7.21 442.33 7.16 442.13 7.08C441.94 7.01 441.82 6.96 441.77 6.94C441.72 6.91 441.62 6.87 441.45 6.80C441.28 6.73 441.17 6.67 441.12 6.64C441.07 6.60 440.98 6.54 440.85 6.45C440.72 6.37 440.63 6.30 440.58 6.24C440.53 6.18 440.47 6.10 440.38 6.00C440.30 5.90 440.24 5.80 440.21 5.70C440.18 5.61 440.15 5.50 440.12 5.38C440.09 5.25 440.08 5.12 440.08 4.98C440.08 4.41 440.27 3.95 440.67 3.62C441.07 3.29 441.56 3.12 442.15 3.12C443.28 3.12 444.06 3.77 444.50 5.07L444.91 4.90C444.70 4.23 444.36 3.69 443.90 3.29C443.43 2.89 442.85 2.69 442.16 2.69C441.47 2.69 440.87 2.90 440.36 3.33C439.85 3.76 439.60 4.33 439.60 5.04C439.60 5.39 439.67 5.71 439.82 5.99C439.96 6.27 440.18 6.51 440.46 6.71C440.75 6.91 441.00 7.07 441.23 7.17C441.46 7.28 441.76 7.41 442.12 7.55C442.40 7.65 442.59 7.72 442.69 7.77C442.80 7.82 442.97 7.90 443.21 8.02C443.45 8.13 443.63 8.24 443.74 8.34C443.84 8.45 443.97 8.58 444.12 8.75C444.26 8.92 444.36 9.11 444.42 9.32C444.47 9.54 444.50 9.78 444.50 10.05C444.50 10.72 444.31 11.27 443.93 11.68C443.56 12.09 442.99 12.29 442.23 12.29C441 12.29 440.06 11.44 439.42 9.74Z"></path></g></svg>