 <svg  version="1.0" xmlns="http://www.w3.org/2000/svg"  width="172.000000pt" height="168.000000pt" viewBox="0 0 172.000000 168.000000"  preserveAspectRatio="xMidYMid meet">  <g transform="translate(0.000000,168.000000) scale(0.100000,-0.100000)" fill="#18efda" stroke="none"> <path d="M1071 1640 c-29 -22 -57 -40 -62 -40 -5 0 -9 -6 -9 -14 0 -7 -10 -26 -22 -42 -13 -15 -21 -36 -20 -46 2 -9 -8 -24 -22 -33 -16 -10 -35 -42 -51 -86 l-27 -69 -46 0 c-44 0 -49 -3 -107 -65 l-60 -65 -130 0 c-72 0 -157 -5 -190 -10 -211 -34 -348 -220 -314 -428 13 -82 46 -147 106 -207 43 -44 130 -95 160 -95 23 0 21 -17 -8 -61 -16 -24 -29 -48 -29 -54 0 -12 39 36 40 50 0 6 9 20 19 33 17 19 29 22 93 22 63 0 84 5 143 33 39 19 76 41 84 50 7 9 17 15 21 12 4 -2 22 16 39 40 l32 45 115 0 c63 0 114 -2 114 -5 0 -3 -36 -58 -81 -121 -44 -64 -79 -117 -77 -120 3 -2 42 52 89 121 104 154 107 155 205 57 87 -86 149 -112 265 -112 128 0 223 48 299 149 75 100 94 237 49 356 -32 86 -130 184 -217 215 -41 15 -62 28 -62 39 0 9 19 37 43 63 38 42 42 51 42 97 0 37 -4 51 -14 51 -19 0 -111 -69 -111 -84 0 -7 -9 -21 -20 -31 -11 -10 -20 -25 -20 -34 0 -9 -14 -29 -31 -44 -27 -23 -40 -27 -95 -27 -35 0 -64 4 -64 9 0 6 27 34 60 63 33 29 60 60 60 68 0 9 11 27 25 40 14 13 25 31 25 40 0 9 16 24 36 34 l37 17 -7 61 c-3 33 -6 69 -6 79 0 28 -13 24 -84 -27 -43 -31 -70 -59 -82 -85 -9 -22 -23 -44 -31 -50 -7 -6 -13 -22 -13 -34 0 -13 -11 -32 -24 -43 -14 -10 -39 -48 -57 -84 l-32 -66 -34 42 c-19 22 -41 46 -49 53 -22 16 -1 47 54 79 25 15 42 32 42 43 0 10 9 26 20 36 11 10 20 24 20 32 0 7 12 19 26 25 25 12 26 15 20 63 -3 27 -6 62 -6 78 0 15 -3 27 -8 27 -4 0 -31 -18 -61 -40z m-146 -450 c4 -6 -10 -10 -35 -10 -25 0 -39 4 -35 10 3 6 19 10 35 10 16 0 32 -4 35 -10z m-211 -132 c-4 -7 -34 -57 -68 -110 l-61 -98 -77 0 -78 0 0 69 c0 76 -13 101 -54 101 -35 0 -45 -19 -48 -95 l-3 -70 -75 -5 c-71 -5 -75 -6 -85 -34 -15 -44 19 -66 101 -66 l64 0 0 -70 c0 -63 2 -71 25 -86 23 -15 27 -15 50 0 23 15 25 23 25 86 l0 70 40 0 c22 0 40 -3 40 -8 0 -4 -11 -24 -25 -45 -14 -20 -24 -37 -21 -37 3 0 19 20 36 45 17 25 37 45 45 45 25 0 57 40 52 62 -4 14 19 54 81 139 l87 119 109 0 c84 0 107 -3 103 -13 -2 -7 -39 -65 -80 -129 -69 -106 -79 -117 -109 -120 -25 -2 -34 -8 -36 -26 -2 -13 3 -24 12 -28 12 -5 13 -10 5 -25 -8 -15 -21 -19 -69 -19 -59 0 -60 -1 -85 -39 -34 -56 -72 -89 -130 -117 -61 -29 -97 -32 -88 -6 5 14 3 14 -9 -2 -14 -18 -20 -19 -72 -7 -73 16 -145 73 -177 138 -19 38 -24 64 -24 128 0 69 4 86 27 127 34 56 88 103 143 122 55 20 440 23 429 4z m496 6 c0 -11 -113 -219 -156 -286 l-44 -68 -110 0 c-60 0 -110 4 -110 9 0 20 30 30 100 33 73 3 75 4 75 28 0 23 -4 25 -53 30 l-53 5 93 128 92 127 83 0 c46 0 83 -3 83 -6z m225 -11 c31 -10 67 -34 95 -63 163 -162 61 -436 -169 -457 -100 -9 -183 31 -247 120 -20 27 -44 52 -55 54 -10 3 -19 7 -19 10 0 3 57 83 128 179 l127 173 46 1 c25 0 67 -8 94 -17z"/> <path d="M1320 1003 c-55 -20 -68 -87 -24 -122 15 -12 35 -21 46 -21 27 0 68 44 68 73 0 44 -51 84 -90 70z"/> <path d="M1160 850 c-43 -43 -11 -120 49 -120 34 0 71 39 71 74 0 56 -79 87 -120 46z"/> <path d="M1420 848 c-26 -28 -26 -58 1 -92 41 -53 119 -21 119 48 0 61 -77 90 -120 44z"/> <path d="M1290 720 c-11 -11 -20 -33 -20 -50 0 -63 77 -94 120 -48 60 65 -38 160 -100 98z"/> <path d="M586 450 c-25 -38 -44 -70 -42 -70 8 0 98 131 94 136 -3 2 -26 -27 -52 -66z"/> <path d="M727 293 c-4 -3 -7 -11 -7 -17 0 -6 5 -5 12 2 6 6 9 14 7 17 -3 3 -9 2 -12 -2z"/> <path d="M694 238 c-4 -7 -3 -8 4 -4 7 4 12 9 12 12 0 8 -9 4 -16 -8z"/> <path d="M376 123 c-42 -64 -75 -118 -73 -120 4 -4 139 194 149 220 15 35 -1 15 -76 -100z"/> <path d="M629 144 c-28 -42 -49 -78 -46 -80 3 -4 26 28 91 129 10 15 16 27 12 27 -3 0 -28 -34 -57 -76z"/> </g> </svg> 