<?xml version="1.0" encoding="UTF-8" standalone="no"?><svg width="60" height="50" viewBox="0 0 60 50" fill="none" xmlns="http://www.w3.org/2000/svg">
<path d="M15.3636 24.7326C19.9141 24.7326 23.6031 21.0437 23.6031 16.4931C23.6031 11.9425 19.9141 8.25354 15.3636 8.25354C10.813 8.25354 7.12402 11.9425 7.12402 16.4931C7.12402 21.0437 10.813 24.7326 15.3636 24.7326Z" fill="#122821"/>
<path d="M0 49.739C0 37.3727 6.87799 27.3505 15.3562 27.3505C23.8343 27.3505 30.7193 37.3727 30.7193 49.739" fill="#122821"/>
<path d="M59.9998 0H27.4697V24.7327H59.9998V0Z" fill="#122821"/>
<path d="M54.1959 5.81116H33.2812V9.2291H54.1959V5.81116Z" fill="#E6F9E0"/>
<path d="M46.4336 12.3663H33.2812V15.7843H46.4336V12.3663Z" fill="#E6F9E0"/>
</svg>
